<svg width="132" height="31" viewBox="0 0 132 31" fill="none" xmlns="http://www.w3.org/2000/svg">
<g clip-path="url(#clip0_2_2)">
<path d="M5.6 27.32C4.64 27.32 3.82933 26.9893 3.168 26.328C2.50667 25.6667 2.176 24.8667 2.176 23.928C2.176 22.9893 2.50667 22.1893 3.168 21.528C3.82933 20.8667 4.64 20.536 5.6 20.536C6.56 20.536 7.37067 20.8667 8.032 21.528C8.69333 22.1893 9.024 22.9893 9.024 23.928C9.024 24.8667 8.69333 25.6667 8.032 26.328C7.37067 26.9893 6.56 27.32 5.6 27.32ZM5.6 16.184C4.64 16.184 3.82933 15.8533 3.168 15.192C2.50667 14.5307 2.176 13.7307 2.176 12.792C2.176 11.8533 2.50667 11.0533 3.168 10.392C3.82933 9.73067 4.64 9.4 5.6 9.4C6.56 9.4 7.37067 9.73067 8.032 10.392C8.69333 11.0533 9.024 11.8533 9.024 12.792C9.024 13.7307 8.69333 14.5307 8.032 15.192C7.37067 15.8533 6.56 16.184 5.6 16.184ZM28.6915 27.32C26.4088 27.32 24.6808 26.776 23.5075 25.688C22.3342 24.6 21.7475 22.9893 21.7475 20.856V7.736H16.0515V3.736H26.9315V20.312C26.9315 21.2293 27.1555 21.9013 27.6035 22.328C28.0515 22.7547 28.7662 22.968 29.7475 22.968C30.2168 22.968 30.6648 22.9253 31.0915 22.84C31.5395 22.7547 32.0302 22.6053 32.5635 22.392V26.584C32.2222 26.7547 31.6675 26.9147 30.8995 27.064C30.1315 27.2347 29.3955 27.32 28.6915 27.32ZM44.455 27.32C42.791 27.32 41.287 26.9467 39.943 26.2C38.6203 25.432 37.5643 24.408 36.775 23.128C35.9857 21.8267 35.591 20.376 35.591 18.776C35.591 17.1547 35.9643 15.704 36.711 14.424C37.4577 13.144 38.471 12.1307 39.751 11.384C41.031 10.616 42.471 10.232 44.071 10.232C45.735 10.232 47.1963 10.6053 48.455 11.352C49.735 12.0987 50.727 13.1333 51.431 14.456C52.1563 15.7573 52.519 17.2613 52.519 18.968V20.088H40.679C40.8497 20.7067 41.127 21.2507 41.511 21.72C41.895 22.1893 42.3643 22.552 42.919 22.808C43.4737 23.064 44.071 23.192 44.711 23.192C45.4577 23.192 46.1297 23.0533 46.727 22.776C47.3457 22.4987 47.8577 22.104 48.263 21.592L51.591 24.568C50.5457 25.5707 49.447 26.2853 48.295 26.712C47.1643 27.1173 45.8843 27.32 44.455 27.32ZM40.711 17.144H47.719C47.5697 16.5253 47.335 16.0027 47.015 15.576C46.695 15.1493 46.3003 14.8293 45.831 14.616C45.3617 14.3813 44.8283 14.264 44.231 14.264C43.655 14.264 43.1217 14.3813 42.631 14.616C42.1617 14.8293 41.767 15.1493 41.447 15.576C41.127 16.0027 40.8817 16.5253 40.711 17.144ZM60.7625 27.256C59.6532 27.256 58.6612 27.0427 57.7865 26.616C56.9332 26.1893 56.2612 25.6027 55.7705 24.856C55.3012 24.1093 55.0665 23.2453 55.0665 22.264C55.0665 21.24 55.3225 20.376 55.8345 19.672C56.3465 18.9467 57.0825 18.4027 58.0425 18.04C59.0025 17.656 60.1545 17.464 61.4985 17.464C62.0958 17.464 62.7038 17.528 63.3225 17.656C63.9412 17.784 64.6132 17.9973 65.3385 18.296V16.888C65.3385 16.0773 65.0718 15.48 64.5385 15.096C64.0052 14.6907 63.1838 14.488 62.0745 14.488C61.4558 14.488 60.7625 14.5947 59.9945 14.808C59.2478 15 58.3945 15.2987 57.4345 15.704L55.5785 12.024C56.9652 11.4053 58.2772 10.9573 59.5145 10.68C60.7732 10.3813 62.0105 10.232 63.2265 10.232C65.5092 10.232 67.2798 10.776 68.5385 11.864C69.8185 12.952 70.4585 14.4773 70.4585 16.44V27H65.3385V25.432C64.6132 26.072 63.8878 26.5413 63.1625 26.84C62.4372 27.1173 61.6372 27.256 60.7625 27.256ZM59.8345 22.168C59.8345 22.7013 60.0585 23.1173 60.5065 23.416C60.9545 23.6933 61.5732 23.832 62.3625 23.832C62.9172 23.832 63.4398 23.7573 63.9305 23.608C64.4425 23.4373 64.9118 23.2027 65.3385 22.904V20.952C64.8692 20.824 64.3892 20.728 63.8985 20.664C63.4292 20.5787 62.9598 20.536 62.4905 20.536C61.6585 20.536 61.0078 20.6747 60.5385 20.952C60.0692 21.2293 59.8345 21.6347 59.8345 22.168ZM81.07 27.256C79.726 27.256 78.4993 26.8827 77.39 26.136C76.2807 25.3893 75.3953 24.376 74.734 23.096C74.0727 21.7947 73.742 20.344 73.742 18.744C73.742 17.1227 74.0727 15.672 74.734 14.392C75.3953 13.112 76.2807 12.0987 77.39 11.352C78.4993 10.6053 79.726 10.232 81.07 10.232C81.8167 10.232 82.51 10.3813 83.15 10.68C83.79 10.9573 84.366 11.352 84.878 11.864V4.152L90.062 3.416V27H85.07V25.4C84.5367 25.9973 83.9287 26.456 83.246 26.776C82.5847 27.096 81.8593 27.256 81.07 27.256ZM82.286 23.16C82.7767 23.16 83.246 23.0747 83.694 22.904C84.142 22.712 84.5367 22.456 84.878 22.136V15.352C84.5367 15.032 84.142 14.7867 83.694 14.616C83.246 14.424 82.7767 14.328 82.286 14.328C81.582 14.328 80.9633 14.5093 80.43 14.872C79.918 15.2347 79.5233 15.7467 79.246 16.408C78.9687 17.0693 78.83 17.848 78.83 18.744C78.83 19.6187 78.9687 20.3973 79.246 21.08C79.5233 21.7413 79.918 22.2533 80.43 22.616C80.9633 22.9787 81.582 23.16 82.286 23.16ZM99.8735 7.768L93.7295 3.096H100.194L104.61 7.768H99.8735ZM99.8735 7.768L93.7295 3.096H100.194L104.61 7.768H99.8735ZM99.8735 7.768L93.7295 3.096H100.194L104.61 7.768H99.8735ZM99.8735 7.768L93.7295 3.096H100.194L104.61 7.768H99.8735ZM102.018 27.32C100.354 27.32 98.8495 26.9467 97.5055 26.2C96.1828 25.432 95.1268 24.408 94.3375 23.128C93.5482 21.8267 93.1535 20.376 93.1535 18.776C93.1535 17.1547 93.5268 15.704 94.2735 14.424C95.0202 13.144 96.0335 12.1307 97.3135 11.384C98.5935 10.616 100.034 10.232 101.634 10.232C103.298 10.232 104.759 10.6053 106.018 11.352C107.298 12.0987 108.29 13.1333 108.994 14.456C109.719 15.7573 110.082 17.2613 110.082 18.968V20.088H98.2415C98.4122 20.7067 98.6895 21.2507 99.0735 21.72C99.4575 22.1893 99.9268 22.552 100.482 22.808C101.036 23.064 101.634 23.192 102.274 23.192C103.02 23.192 103.692 23.0533 104.29 22.776C104.908 22.4987 105.42 22.104 105.826 21.592L109.154 24.568C108.108 25.5707 107.01 26.2853 105.858 26.712C104.727 27.1173 103.447 27.32 102.018 27.32ZM98.2735 17.144H105.282C105.132 16.5253 104.898 16.0027 104.578 15.576C104.258 15.1493 103.863 14.8293 103.394 14.616C102.924 14.3813 102.391 14.264 101.794 14.264C101.218 14.264 100.684 14.3813 100.194 14.616C99.7242 14.8293 99.3295 15.1493 99.0095 15.576C98.6895 16.0027 98.4442 16.5253 98.2735 17.144ZM112.981 27V23H116.565V14.488H112.981V10.488H121.749V14.648C122.346 13.1333 123.093 12.024 123.989 11.32C124.906 10.5947 125.941 10.232 127.093 10.232C127.584 10.232 127.968 10.264 128.245 10.328C128.544 10.392 128.896 10.52 129.301 10.712V15.352C128.896 15.16 128.405 15.0213 127.829 14.936C127.274 14.8293 126.72 14.776 126.165 14.776C125.269 14.776 124.426 14.9787 123.637 15.384C122.848 15.768 122.218 16.3013 121.749 16.984V23H125.525V27H112.981Z" fill="#fff"/>
</g>
<defs>
<clipPath id="clip0_2_2">
<rect width="132" height="31" fill="white"/>
</clipPath>
</defs>
</svg>
